# Rhino

mtllib ??.mtl
usemtl diffuse_Black
v -31.965969085693359 15 -11.227302551269531
v -26.485263824462891 15 -8.7941570281982422
v -20.756898880004883 15 -7.0209255218505859
v -14.859908103942871 15 -5.9328980445861816
v -8.8760566711425781 15 -5.5436115264892578
v -2.8878951072692871 15 -5.8603239059448242
v 3.0218234062194824 15 -6.8767728805541992
v 8.7712793350219727 15 -8.5804271697998047
v 14.281068801879883 15 -10.946940422058105
v -31.965969085693359 -8 -11.227302551269531
v -26.485263824462891 -8 -8.7941570281982422
v -20.756898880004883 -8 -7.0209255218505859
v -14.859908103942871 -8 -5.9328980445861816
v -8.8760566711425781 -8 -5.5436115264892578
v -2.8878951072692871 -8 -5.8603239059448242
v 3.0218234062194824 -8 -6.8767728805541992
v 8.7712793350219727 -8 -8.5804271697998047
v 14.281068801879883 -8 -10.946940422058105
vt 0 0
vt 0 0.12499960511922836
vt 0 0.25
vt 0 0.37499973177909851
vt 0 0.5
vt 0 0.62500089406967163
vt 0 0.75
vt 0 0.87500065565109253
vt 0 1
vt 1 0
vt 1 0.12499960511922836
vt 1 0.25
vt 1 0.37499973177909851
vt 1 0.5
vt 1 0.62500089406967163
vt 1 0.75
vt 1 0.87500065565109253
vt 1 1
vn -0.45894867181777954 0 0.88846278190612793
vn -0.35131317377090454 0 0.93625801801681519
vn -0.23897992074489594 0 0.97102451324462891
vn -0.12340398132801056 0 0.99235653877258301
vn -0.0060621472075581551 0 0.99998164176940918
vn 0.11136409640312195 0 0.99377965927124023
vn 0.22718958556652069 0 0.9738505482673645
vn 0.33993634581565857 0 0.94044846296310425
vn 0.44814315438270569 0 0.89396178722381592
vn -0.45894867181777954 0 0.88846278190612793
vn -0.35131317377090454 0 0.93625801801681519
vn -0.23897992074489594 0 0.97102451324462891
vn -0.12340398132801056 0 0.99235653877258301
vn -0.0060621472075581551 0 0.99998164176940918
vn 0.11136409640312195 0 0.99377965927124023
vn 0.22718958556652069 0 0.9738505482673645
vn 0.33993634581565857 0 0.94044846296310425
vn 0.44814315438270569 0 0.89396178722381592
f 11/11/11 2/2/2 1/1/1 10/10/10
f 12/12/12 3/3/3 2/2/2 11/11/11
f 13/13/13 4/4/4 3/3/3 12/12/12
f 14/14/14 5/5/5 4/4/4 13/13/13
f 15/15/15 6/6/6 5/5/5 14/14/14
f 16/16/16 7/7/7 6/6/6 15/15/15
f 17/17/17 8/8/8 7/7/7 16/16/16
f 18/18/18 9/9/9 8/8/8 17/17/17
